<?xml version="1.0" encoding="iso-8859-1"?>
<!-- Uploaded to: SVG Repo, www.svgrepo.com, Generator: SVG Repo Mixer Tools -->
<svg version="1.1" id="Layer_1" xmlns="http://www.w3.org/2000/svg" xmlns:xlink="http://www.w3.org/1999/xlink" 
	 viewBox="0 0 512 512" xml:space="preserve">
<path style="fill:#B29A7E;" d="M358.4,268.801c-11.676,15.543-193.124,15.543-204.8,0V409.6c0,56.556,45.846,102.4,102.4,102.4
	s102.4-45.845,102.4-102.4V268.801z"/>
<path style="fill:#A58868;" d="M256,280.457v231.542c56.554,0,102.4-45.844,102.4-102.4V268.8
	C352.562,276.572,304.282,280.457,256,280.457z"/>
<path style="fill:#BFA993;" d="M256,0C114.616,0,0,80.23,0,179.2h140.8v51.2c0,35.346,28.654,64,64,64h102.4
	c35.346,0,64-28.654,64-64v-51.2H512C512,80.23,397.385,0,256,0z"/>
<path style="fill:#B29A7E;" d="M256,0L256,0v294.4h51.2c35.346,0,64-28.654,64-64v-51.2H512C512,80.23,397.385,0,256,0z"/>
<path style="fill:#F8E99B;" d="M153.6,268.801c-8.036-10.697-12.8-23.992-12.8-38.401v-51.2c0-38.881-31.519-70.4-70.4-70.4
	S0,140.319,0,179.2c0,115.2,153.6,115.2,153.6,230.4V268.801z"/>
<path style="fill:#F6E27D;" d="M441.6,108.8c-38.881,0-70.4,31.519-70.4,70.4v51.2c0,14.409-4.764,27.704-12.8,38.401V409.6
	c0-115.2,153.6-115.2,153.6-230.4C512,140.319,480.481,108.8,441.6,108.8z"/>
<path style="fill:#58575D;" d="M211.2,224h-0.003c-14.115,0-25.597-11.484-25.597-25.6c0.005-14.118,11.489-25.6,25.6-25.6
	c14.116,0,25.6,11.484,25.6,25.6S225.316,224,211.2,224z"/>
<path style="fill:#454449;" d="M300.8,224h-0.003c-14.115,0-25.597-11.484-25.597-25.6c0.005-14.118,11.489-25.6,25.6-25.6
	c14.116,0,25.6,11.484,25.6,25.6S314.916,224,300.8,224z"/>
<rect x="198.4" y="294.4" style="fill:#F8F8F9;" width="38.4" height="51.2"/>
<rect x="275.2" y="294.4" style="fill:#EDEDED;" width="38.4" height="51.2"/>
</svg>